<svg width="23" height="20" viewBox="0 0 23 20" fill="none" xmlns="http://www.w3.org/2000/svg">
<path d="M11.3349 19.9992C13.9942 19.9992 16.6534 19.9992 19.3203 19.9992C21.0855 19.9992 22.2295 18.8476 22.2295 17.0823C22.2295 15.9383 22.2371 14.7867 22.2295 13.6427C22.2295 13.1578 21.881 12.779 21.4265 12.726C20.9795 12.673 20.5552 12.9609 20.4491 13.4154C20.4188 13.5291 20.4188 13.6579 20.4188 13.7791C20.4188 14.908 20.4188 16.0292 20.4188 17.1581C20.4188 17.8097 20.0552 18.1733 19.396 18.1733C14.0169 18.1733 8.63778 18.1733 3.25865 18.1733C2.59952 18.1733 2.23586 17.8172 2.23586 17.1581C2.23586 15.9838 2.23586 14.8095 2.23586 13.6351C2.23586 13.1503 1.88736 12.7715 1.42521 12.726C0.978207 12.6805 0.561515 12.9684 0.447871 13.4154C0.417566 13.5215 0.417567 13.6427 0.417567 13.7564C0.417567 14.8928 0.417567 16.0292 0.417567 17.1657C0.425143 18.8173 1.59188 19.9916 3.2435 19.9992C5.93306 19.9992 8.63778 19.9992 11.3349 19.9992Z" fill="white"/>
<path d="M12.2287 13.5438C12.2287 13.3847 12.2287 13.2786 12.2287 13.165C12.2287 9.14199 12.2287 5.11901 12.2287 1.09603C12.2287 0.944503 12.2212 0.792979 12.1833 0.64903C12.0621 0.224761 11.6681 -0.0404072 11.2362 0.00505024C10.8044 0.0429314 10.4483 0.406591 10.418 0.846013C10.4104 0.95208 10.418 1.05057 10.418 1.15664C10.418 5.16447 10.418 9.16472 10.418 13.1725C10.418 13.2786 10.418 13.3923 10.418 13.5589C9.96343 13.2029 9.56189 12.8771 9.16035 12.5589C8.55426 12.074 7.94816 11.5891 7.34206 11.1042C6.90264 10.7482 6.35715 10.786 6.02379 11.1952C5.68286 11.6043 5.75863 12.1573 6.20562 12.521C7.69814 13.718 9.19066 14.9151 10.6832 16.1045C11.1302 16.4606 11.5241 16.4606 11.9711 16.1045C13.4258 14.9454 14.888 13.7786 16.3426 12.6119C16.7745 12.2634 16.8502 11.7103 16.5245 11.3088C16.1987 10.8997 15.6532 10.8542 15.2138 11.2027C14.3122 11.9225 13.4106 12.6422 12.5015 13.362C12.4181 13.4074 12.3424 13.4604 12.2287 13.5438Z" fill="white"/>
</svg>
