<svg width="33" height="40" viewBox="0 0 33 40" fill="none" xmlns="http://www.w3.org/2000/svg">
<path d="M16.2858 0C16.2858 0 27.2731 2.69795 31.7208 3.80254C32.0923 3.89052 32.2682 4.04692 32.3073 4.43793C32.5028 6.44184 32.7277 8.44575 32.9036 10.0782C32.454 22.6393 27.3513 32.2776 17.4198 39.3451C16.931 39.697 16.452 40 16.452 40C16.452 40 15.9242 39.6872 15.4256 39.3353C8.40705 34.4477 3.64654 27.9081 1.28095 19.6774C-0.175552 14.6139 -0.34173 9.47214 0.538035 4.2913C0.596686 3.92962 0.79219 3.86119 1.07567 3.79277L16.2858 0ZM31.6426 9.72629C31.5644 8.8563 31.3983 7.2043 31.2712 5.5523C31.2321 5.08309 31.0659 4.85826 30.5771 4.74096C25.9828 3.60704 21.3885 2.43402 16.7941 1.29032C16.5204 1.2219 16.2076 1.24145 15.9339 1.30987C11.3396 2.44379 6.7355 3.59726 2.14116 4.73118C1.76971 4.81916 1.61331 4.98534 1.55465 5.36657C0.841066 10.3421 1.11477 15.2493 2.61037 20.0586C4.98574 27.6833 9.49209 33.7537 16.0317 38.3284C16.3152 38.5239 16.5009 38.5337 16.7941 38.3284C19.5507 36.4321 21.9945 34.1935 24.0767 31.5738C29.0033 25.4252 31.5547 18.4164 31.6426 9.72629Z" fill="#7FD5D6"/>
<path d="M23.5585 10.0587H21.8185V11.7986H23.5585V10.0587Z" fill="#7FD5D6"/>
<path d="M23.5585 22.7175H21.8185V24.4575H23.5585V22.7175Z" fill="#7FD5D6"/>
<path d="M11.0463 10.0587H9.30634V11.7986H11.0463V10.0587Z" fill="#7FD5D6"/>
<path d="M11.0463 22.7175H9.30634V24.4575H11.0463V22.7175Z" fill="#7FD5D6"/>
<path d="M13.1187 8.00586L16.0708 11.1632V16.2659L13.1676 13.3627L13.1187 8.00586Z" fill="#7FD5D6"/>
<path d="M19.756 8.00586L16.8039 11.1632V16.2659L19.7071 13.3627L19.756 8.00586Z" fill="#7FD5D6"/>
<path d="M13.1187 26.481L16.0708 23.3138V18.2209L13.1676 21.1144L13.1187 26.481Z" fill="#7FD5D6"/>
<path d="M19.756 26.481L16.8039 23.3138V18.2209L19.7071 21.1144L19.756 26.481Z" fill="#7FD5D6"/>
<path d="M25.6211 20.5669L22.4539 17.6148H17.3611L20.2545 20.518L25.6211 20.5669Z" fill="#7FD5D6"/>
<path d="M25.6211 13.9296L22.4539 16.8817H17.3611L20.2545 13.9785L25.6211 13.9296Z" fill="#7FD5D6"/>
<path d="M7.12653 20.5669L10.2839 17.6148H15.3865L12.4833 20.518L7.12653 20.5669Z" fill="#7FD5D6"/>
<path d="M7.12653 13.9296L10.2839 16.8817H15.3865L12.4833 13.9785L7.12653 13.9296Z" fill="#7FD5D6"/>
</svg>
