<svg width="19" height="25" viewBox="0 0 19 25" fill="none" xmlns="http://www.w3.org/2000/svg">
<path d="M17.2688 25C11.846 25 6.43164 25 1.00889 25C0.235407 24.7486 0 24.1956 0 23.4247C0.0168148 19.5535 0.00840661 15.6822 0.00840661 11.811C0.00840661 11.6769 0.00840712 11.5512 0.0168145 11.4172C0.050444 11.0066 0.243814 10.6714 0.605331 10.4871C0.823923 10.3698 1.10137 10.3279 1.35359 10.3027C1.7067 10.2692 2.05981 10.2943 2.42973 10.2943C2.42973 9.12125 2.42973 7.99004 2.42973 6.85884C2.42973 5.96226 2.54744 5.09081 2.90055 4.26126C3.95147 1.79775 5.80109 0.364892 8.46623 0.0464793C10.2654 -0.163003 11.8964 0.339754 13.3089 1.47096C14.797 2.66082 15.6714 4.22774 15.7975 6.12984C15.8815 7.41187 15.8311 8.70228 15.8479 9.98431C15.8479 10.0765 15.8479 10.177 15.8479 10.2943C16.2262 10.2943 16.5709 10.2943 16.924 10.2943C17.7648 10.3027 18.2692 10.7887 18.2692 11.6267C18.2692 15.6403 18.2692 19.6456 18.2692 23.6593C18.2692 24.3464 17.9834 24.7151 17.3276 24.9497C17.3108 24.9749 17.294 24.9916 17.2688 25ZM13.3509 10.2943C13.3593 10.2273 13.3677 10.1854 13.3677 10.1435C13.3677 8.98718 13.3761 7.83084 13.3593 6.68288C13.3593 6.3896 13.3341 6.09633 13.2668 5.81143C12.7456 3.56578 10.7278 2.20834 8.4326 2.54351C6.53253 2.8284 4.97717 4.54616 4.92672 6.46501C4.89309 7.68839 4.91832 8.92015 4.90991 10.1519C4.90991 10.1938 4.91832 10.2441 4.92672 10.3027C7.74319 10.2943 10.5429 10.2943 13.3509 10.2943Z" fill="#151824"/>
</svg>
