<svg width="25" height="27" viewBox="0 0 25 27" fill="none" xmlns="http://www.w3.org/2000/svg">
<path d="M2.82703 26.1628C2.67285 26.1151 2.51867 26.0742 2.36981 26.0197C0.976899 25.536 0.00398734 23.9418 0.00398734 22.0955C-0.00132911 16.0864 -0.00132911 10.0706 0.00398734 4.06157C0.0093038 1.82692 1.42348 0.0146799 3.16196 0.00786692C6.16576 -0.00575898 9.16956 0.00105397 12.1734 0.00786692C12.7422 0.00786692 13.1622 0.525651 13.1675 1.22057C13.1729 1.92912 12.7529 2.45372 12.1734 2.45372C9.22804 2.45372 6.28804 2.45372 3.34272 2.45372C2.43893 2.45372 1.91791 3.11457 1.91791 4.27277C1.91791 10.1455 1.91791 16.0251 1.91791 21.8979C1.91791 23.0493 2.43893 23.7101 3.34272 23.7101C6.28804 23.7101 9.22804 23.7101 12.1734 23.7101C12.6784 23.7101 13.0825 24.1257 13.1569 24.7184C13.2367 25.3589 12.9708 25.8971 12.4711 26.1151C12.4445 26.1287 12.4232 26.1423 12.402 26.1628C9.20678 26.1628 6.0169 26.1628 2.82703 26.1628Z" fill="white"/>
<path d="M20.5732 12.7958L4.94824 12.7958" stroke="white" stroke-width="2" stroke-linecap="round" stroke-linejoin="round"/>
<path d="M14.2715 6.52025L20.5736 12.7952L14.2715 19.0713" stroke="white" stroke-width="2" stroke-linecap="round" stroke-linejoin="round"/>
</svg>
