<svg width="25" height="28" viewBox="0 0 25 28" fill="none" xmlns="http://www.w3.org/2000/svg">
<path d="M12.4022 0.439943C10.6422 0.37574 9.27928 1.59177 7.80343 2.35586C5.79612 3.54576 3.7291 4.64344 1.76177 5.89502C0.474974 6.94092 -0.116253 8.62393 0.0188801 10.2492C0.0263723 13.1308 0.00395031 16.013 0.0302003 18.8942C0.196833 20.6387 1.40652 22.1193 2.96315 22.8491C5.46204 24.2833 7.94627 25.7441 10.4543 27.1616C12.0487 27.8886 13.9361 27.5828 15.3465 26.5992C17.838 25.152 20.345 23.7303 22.8268 22.2669C24.2544 21.2505 24.9321 19.4627 24.7856 17.7497C24.7781 14.8681 24.8006 11.9859 24.7743 9.10474C24.6075 7.36032 23.398 5.87944 21.8412 5.14996C19.3423 3.71605 16.8576 2.25617 14.3497 0.83856C13.7427 0.556591 13.0684 0.441802 12.4023 0.439888L12.4022 0.439943ZM10.8329 7.69643H13.972V20.303H10.8329V7.69643ZM14.7831 10.4403H17.9206V20.303H14.7831V10.4403ZM6.88336 15.5853H10.0219V20.303H6.88336V15.5853V15.5853Z" fill="white"/>
</svg>
