<svg width="88" height="40" viewBox="0 0 88 40" fill="none" xmlns="http://www.w3.org/2000/svg">
<path d="M30.5604 39.5347V9.49268H34.8385C35.8817 16.8071 36.9655 24.115 37.8255 31.4644C38.7491 24.1485 39.6713 16.8268 40.592 9.49922H44.7362C44.7499 9.50832 44.7627 9.51853 44.7746 9.52976C44.7873 9.54075 44.7964 9.55515 44.801 9.57121C44.8119 9.69228 44.8284 9.81335 44.8284 9.93442C44.824 19.7757 44.8185 29.6174 44.8119 39.4595C44.8119 39.4889 44.7812 39.5184 44.7505 39.574H41.9215C41.8206 32.2094 41.9928 24.8491 42.0586 17.4954C41.0765 24.8396 40.0951 32.1763 39.1144 39.5053C38.7085 39.6198 36.9754 39.6471 36.1932 39.5511C35.2367 32.1766 34.154 24.8011 33.2688 17.3961C33.3489 24.7706 33.4991 32.1417 33.4125 39.5086C33.0231 39.6176 31.1572 39.6383 30.5604 39.5347Z" fill="white"/>
<path d="M3.26399 21.7623H7.09233V7.5446H10.2735C10.3755 7.93181 10.4161 38.6305 10.3195 39.5085C9.94658 39.6176 7.72307 39.6394 7.10439 39.5282V24.7116H3.26509C3.2607 29.6505 3.2607 34.578 3.26509 39.4943C2.86799 39.6176 0.922016 39.6492 0.105889 39.5576C-0.0158719 39.1835 -0.0443948 8.16741 0.0828507 7.54242H3.26399V21.7623Z" fill="white"/>
<path d="M73.6253 39.5762H70.7732L66.8242 23.5424L66.731 23.5533C66.7716 26.2049 66.8286 28.8565 66.8484 31.508C66.8681 34.1596 66.8484 36.8439 66.8484 39.502C66.4326 39.6111 64.7038 39.6296 64.1334 39.5293V13.3637C64.6161 13.2546 65.1042 13.3255 65.5869 13.3124C66.0695 13.2993 66.5324 13.3124 67.0688 13.3124C68.3523 18.7028 69.632 24.0838 70.9082 29.4553L70.9685 29.44V13.3986C71.3042 13.2895 72.7686 13.2568 73.6012 13.3473C73.7021 13.7236 73.7295 38.9054 73.6253 39.5762Z" fill="white"/>
<path d="M78.4266 28.0112H81.3269C81.3368 28.2086 81.3522 28.3929 81.3522 28.5783C81.3522 30.6889 81.3522 32.8006 81.3522 34.9122C81.3465 35.2788 81.3833 35.6448 81.4619 36.003C81.644 36.7665 82.2067 37.1755 82.9899 37.1864C83.8137 37.1995 84.3326 36.8472 84.5553 36.0673C84.6508 35.7141 84.7081 35.3517 84.7264 34.9864C84.9326 31.784 84.2108 28.7856 82.6652 25.9791C82.1606 25.0618 81.6143 24.1674 81.0867 23.261C80.0819 21.5333 79.2219 19.7445 78.7765 17.7834C78.3106 15.7738 78.1831 13.7013 78.3992 11.6502C78.4562 11.1295 78.5732 10.6172 78.748 10.1232C79.3963 8.2809 80.7324 7.2927 82.6806 7.16945C83.2755 7.13273 83.8727 7.17454 84.4565 7.29379C86.1732 7.65046 87.3009 8.89171 87.5532 10.6423C87.6128 11.0564 87.6428 11.4741 87.6432 11.8923C87.6519 13.9342 87.6432 15.976 87.6432 18.0179V18.5752C87.2417 18.693 85.6215 18.7236 84.7374 18.633C84.7308 18.4574 84.7176 18.2731 84.7176 18.0877C84.7176 16.0807 84.7176 14.0738 84.711 12.0668C84.7142 11.7189 84.6741 11.372 84.5915 11.0339C84.4203 10.3729 83.9146 10.0097 83.1961 9.96826C82.4283 9.92354 81.859 10.2039 81.6154 10.8409C81.4674 11.2317 81.3816 11.6431 81.361 12.0603C81.2173 15.1263 81.8228 18.0255 83.3837 20.7011C84.0265 21.8027 84.666 22.9054 85.2902 24.0169C86.2709 25.7621 87.0344 27.5945 87.3952 29.572C87.7627 31.591 87.8966 33.6241 87.6585 35.6659C87.5886 36.2192 87.4538 36.7624 87.257 37.2846C86.7491 38.6665 85.752 39.5217 84.3008 39.8423C83.425 40.0425 82.5161 40.0522 81.6363 39.8707C79.8713 39.4999 78.7513 38.2717 78.5111 36.4382C78.4523 35.9886 78.4219 35.5358 78.42 35.0824C78.4102 32.9358 78.42 30.7893 78.42 28.6471L78.4266 28.0112Z" fill="white"/>
<path d="M15.3841 13.3408H18.597C18.6058 13.5404 18.6201 13.7422 18.6201 13.9429C18.6201 18.0426 18.6201 22.143 18.6201 26.2442C18.6201 29.1055 18.6201 31.9669 18.6201 34.8283C18.6175 35.1421 18.6391 35.4557 18.6848 35.7663C18.8318 36.6978 19.4812 37.2071 20.4619 37.1842C21.4217 37.1613 22.0689 36.5963 22.1698 35.6714C22.1974 35.3588 22.208 35.0449 22.2016 34.7312C22.2016 27.8385 22.2016 20.9465 22.2016 14.0552V13.3485H25.4135C25.4244 13.5044 25.4464 13.655 25.4464 13.8066C25.4464 20.9247 25.4464 28.0432 25.4464 35.162C25.4464 37.7591 23.7582 39.6024 21.1474 39.9351C20.2933 40.0467 19.4256 39.996 18.5905 39.7856C16.7136 39.3133 15.5717 37.951 15.4093 36.0193C15.3896 35.7946 15.3841 35.5667 15.3841 35.3398C15.3841 28.2391 15.3841 21.1381 15.3841 14.0367V13.3408Z" fill="white"/>
<path d="M57.069 39.5609L56.3231 33.7135H52.6253C52.3467 35.6648 52.0703 37.6085 51.7906 39.5675H48.8288C50.1905 30.1697 51.5488 20.7894 52.9039 11.4266H56.3769C57.6201 20.7974 58.8669 30.1752 60.1174 39.5598L57.069 39.5609ZM55.9853 30.8514C55.4927 26.7448 55.0386 22.708 54.545 18.6767H54.4276C53.9263 22.7233 53.425 26.7688 52.9193 30.8482L55.9853 30.8514Z" fill="white"/>
<path d="M20.4608 6.16815C21.8518 6.15942 22.952 7.18798 22.9706 8.51322C22.9893 9.83846 21.8814 10.9041 20.5091 10.9128C19.1368 10.9216 18.0146 9.87555 17.9971 8.56013C17.9795 7.2447 19.0787 6.17796 20.4608 6.16815Z" fill="white"/>
<path d="M83.3584 4.75782C81.9708 4.75018 80.9002 3.70417 80.9057 2.35821C80.9111 1.01224 82.0026 -0.00759254 83.3935 4.25885e-05C84.7669 0.00658698 85.8781 1.08314 85.8628 2.39202C85.8474 3.7009 84.734 4.76545 83.3584 4.75782Z" fill="white"/>
<path d="M5.22325 5.15485C3.83891 5.14722 2.75732 4.09248 2.76939 2.75524C2.78145 1.418 3.88279 0.376349 5.26165 0.388347C6.64051 0.400345 7.73525 1.47908 7.72538 2.79341C7.71551 4.10774 6.6065 5.16358 5.22325 5.15485Z" fill="white"/>
<path d="M57.2841 6.60007C57.2983 7.90894 56.1871 8.99968 54.8203 8.99968C53.4536 8.99968 52.3204 7.92858 52.3127 6.62733C52.305 5.32609 53.4294 4.22772 54.7885 4.22772C56.1476 4.22772 57.2698 5.2781 57.2841 6.60007Z" fill="white"/>
<path d="M40.2903 4.68914C40.2903 6.01547 39.1934 7.07675 37.82 7.0822C36.4466 7.08766 35.3398 6.0351 35.331 4.70768C35.3223 3.38026 36.4203 2.32225 37.8014 2.31788C39.1824 2.31352 40.2881 3.36608 40.2903 4.68914Z" fill="white"/>
<path d="M69.0686 6.16815C70.4453 6.17687 71.5565 7.25124 71.54 8.55685C71.5236 9.86246 70.4047 10.9172 69.0291 10.9172C67.6536 10.9172 66.5566 9.84173 66.5687 8.51759C66.5808 7.19344 67.6755 6.15942 69.0686 6.16815Z" fill="white"/>
</svg>
