<svg width="24" height="25" viewBox="0 0 24 25" fill="none" xmlns="http://www.w3.org/2000/svg">
<path d="M5 9.01318C5.26522 9.01318 5.51957 9.11854 5.70711 9.30608C5.89464 9.49361 6 9.74797 6 10.0132C7.57114 10.0109 9.09698 10.5395 10.33 11.5132H12.5C13.833 11.5132 15.03 12.0932 15.854 13.0132H19C19.9453 13.0129 20.8712 13.2806 21.6705 13.7852C22.4698 14.2898 23.1097 15.0107 23.516 15.8642C21.151 18.9852 17.322 21.0132 13 21.0132C10.21 21.0132 7.85 20.4102 5.94 19.3552C5.87004 19.5482 5.74224 19.715 5.57402 19.8328C5.40579 19.9505 5.20534 20.0135 5 20.0132H2C1.73478 20.0132 1.48043 19.9078 1.29289 19.7203C1.10536 19.5328 1 19.2784 1 19.0132V10.0132C1 9.74797 1.10536 9.49361 1.29289 9.30608C1.48043 9.11854 1.73478 9.01318 2 9.01318H5ZM6.001 12.0132L6 17.0352L6.045 17.0672C7.84 18.3272 10.178 19.0132 13 19.0132C16.004 19.0132 18.799 17.8572 20.835 15.8832L20.968 15.7502L20.848 15.6502C20.3758 15.2804 19.8034 15.0609 19.205 15.0202L19 15.0132H16.889C16.961 15.3352 17 15.6692 17 16.0132V17.0132H8V15.0132L14.79 15.0122L14.756 14.9342C14.5644 14.5337 14.2696 14.1915 13.9019 13.9426C13.5343 13.6938 13.107 13.5473 12.664 13.5182L12.5 13.5132H9.57C9.10531 13.0379 8.55027 12.6604 7.93752 12.4028C7.32477 12.1452 6.66569 12.0127 6.001 12.0132ZM4 11.0132H3V18.0132H4V11.0132ZM18 5.01318C18.7956 5.01318 19.5587 5.32925 20.1213 5.89186C20.6839 6.45447 21 7.21753 21 8.01318C21 8.80883 20.6839 9.5719 20.1213 10.1345C19.5587 10.6971 18.7956 11.0132 18 11.0132C17.2044 11.0132 16.4413 10.6971 15.8787 10.1345C15.3161 9.5719 15 8.80883 15 8.01318C15 7.21753 15.3161 6.45447 15.8787 5.89186C16.4413 5.32925 17.2044 5.01318 18 5.01318ZM18 7.01318C17.7348 7.01318 17.4804 7.11854 17.2929 7.30608C17.1054 7.49361 17 7.74797 17 8.01318C17 8.2784 17.1054 8.53275 17.2929 8.72029C17.4804 8.90783 17.7348 9.01318 18 9.01318C18.2652 9.01318 18.5196 8.90783 18.7071 8.72029C18.8946 8.53275 19 8.2784 19 8.01318C19 7.74797 18.8946 7.49361 18.7071 7.30608C18.5196 7.11854 18.2652 7.01318 18 7.01318ZM11 2.01318C11.7956 2.01318 12.5587 2.32925 13.1213 2.89186C13.6839 3.45447 14 4.21753 14 5.01318C14 5.80883 13.6839 6.57189 13.1213 7.1345C12.5587 7.69711 11.7956 8.01318 11 8.01318C10.2044 8.01318 9.44129 7.69711 8.87868 7.1345C8.31607 6.57189 8 5.80883 8 5.01318C8 4.21753 8.31607 3.45447 8.87868 2.89186C9.44129 2.32925 10.2044 2.01318 11 2.01318ZM11 4.01318C10.7348 4.01318 10.4804 4.11854 10.2929 4.30608C10.1054 4.49361 10 4.74797 10 5.01318C10 5.2784 10.1054 5.53275 10.2929 5.72029C10.4804 5.90783 10.7348 6.01318 11 6.01318C11.2652 6.01318 11.5196 5.90783 11.7071 5.72029C11.8946 5.53275 12 5.2784 12 5.01318C12 4.74797 11.8946 4.49361 11.7071 4.30608C11.5196 4.11854 11.2652 4.01318 11 4.01318Z" fill="#F8F8F8"/>
</svg>
