<svg width="24" height="25" viewBox="0 0 24 25" fill="none" xmlns="http://www.w3.org/2000/svg">
<path d="M15.75 15.0132C15.5511 15.0132 15.3603 15.0922 15.2197 15.2329C15.079 15.3735 15 15.5643 15 15.7632C15 15.9621 15.079 16.1529 15.2197 16.2935C15.3603 16.4342 15.5511 16.5132 15.75 16.5132H18.75C18.9489 16.5132 19.1397 16.4342 19.2803 16.2935C19.421 16.1529 19.5 15.9621 19.5 15.7632C19.5 15.5643 19.421 15.3735 19.2803 15.2329C19.1397 15.0922 18.9489 15.0132 18.75 15.0132H15.75ZM1.5 8.26318C1.5 7.26862 1.89509 6.31479 2.59835 5.61153C3.30161 4.90827 4.25544 4.51318 5.25 4.51318H18.75C19.7446 4.51318 20.6984 4.90827 21.4016 5.61153C22.1049 6.31479 22.5 7.26862 22.5 8.26318V15.7632C22.5 16.7577 22.1049 17.7116 21.4016 18.4148C20.6984 19.1181 19.7446 19.5132 18.75 19.5132H5.25C4.25544 19.5132 3.30161 19.1181 2.59835 18.4148C1.89509 17.7116 1.5 16.7577 1.5 15.7632V8.26318ZM21 9.01318V8.26318C21 7.66645 20.7629 7.09415 20.341 6.67219C19.919 6.25024 19.3467 6.01318 18.75 6.01318H5.25C4.65326 6.01318 4.08097 6.25024 3.65901 6.67219C3.23705 7.09415 3 7.66645 3 8.26318V9.01318H21ZM3 10.5132V15.7632C3 16.3599 3.23705 16.9322 3.65901 17.3542C4.08097 17.7761 4.65326 18.0132 5.25 18.0132H18.75C19.3467 18.0132 19.919 17.7761 20.341 17.3542C20.7629 16.9322 21 16.3599 21 15.7632V10.5132H3Z" fill="#F8F8F8"/>
</svg>
