<svg width="24" height="25" viewBox="0 0 24 25" fill="none" xmlns="http://www.w3.org/2000/svg">
<path d="M4.5 15.7632V15.0132H3V15.7632C3 17.1556 3.55312 18.4909 4.53769 19.4755C5.52226 20.4601 6.85761 21.0132 8.25 21.0132H10.5V19.5132H8.25C7.25544 19.5132 6.30161 19.1181 5.59835 18.4148C4.89509 17.7116 4.5 16.7577 4.5 15.7632ZM18 8.26319V9.01319H19.5V8.26319C19.5 6.8708 18.9469 5.53544 17.9623 4.55087C16.9777 3.56631 15.6424 3.01318 14.25 3.01318H12V4.51319H14.25C14.7425 4.51319 15.2301 4.61018 15.6851 4.79864C16.14 4.98709 16.5534 5.26331 16.9017 5.61153C17.2499 5.95975 17.5261 6.37315 17.7145 6.82812C17.903 7.28309 18 7.77073 18 8.26319ZM8.25 8.26319H3.75C3.15326 8.26319 2.58097 8.50024 2.15901 8.92219C1.73705 9.34415 1.5 9.91645 1.5 10.5132V12.0132H3V10.5132C3 10.3143 3.07902 10.1235 3.21967 9.98285C3.36032 9.8422 3.55109 9.76319 3.75 9.76319H8.25C8.44891 9.76319 8.63968 9.8422 8.78033 9.98285C8.92098 10.1235 9 10.3143 9 10.5132V12.0132H10.5V10.5132C10.5 9.91645 10.2629 9.34415 9.84099 8.92219C9.41903 8.50024 8.84674 8.26319 8.25 8.26319ZM6 7.51319C6.59334 7.51319 7.17336 7.33724 7.66671 7.00759C8.16006 6.67795 8.54458 6.20941 8.77164 5.66124C8.9987 5.11306 9.05811 4.50986 8.94236 3.92791C8.8266 3.34597 8.54088 2.81142 8.12132 2.39186C7.70176 1.97231 7.16721 1.68658 6.58527 1.57083C6.00333 1.45507 5.40013 1.51448 4.85195 1.74155C4.30377 1.96861 3.83524 2.35313 3.50559 2.84647C3.17595 3.33982 3 3.91984 3 4.51319C3 5.30883 3.31607 6.0719 3.87868 6.63451C4.44129 7.19711 5.20435 7.51319 6 7.51319ZM6 3.01318C6.29667 3.01318 6.58668 3.10116 6.83335 3.26598C7.08003 3.4308 7.27229 3.66507 7.38582 3.93916C7.49935 4.21325 7.52906 4.51485 7.47118 4.80582C7.4133 5.09679 7.27044 5.36407 7.06066 5.57385C6.85088 5.78362 6.58361 5.92649 6.29264 5.98436C6.00166 6.04224 5.70006 6.01254 5.42597 5.899C5.15189 5.78547 4.91762 5.59321 4.7528 5.34654C4.58797 5.09987 4.5 4.80986 4.5 4.51319C4.5 4.11536 4.65804 3.73383 4.93934 3.45252C5.22064 3.17122 5.60218 3.01318 6 3.01318ZM20.25 18.7632H15.75C15.1533 18.7632 14.581 19.0002 14.159 19.4222C13.7371 19.8442 13.5 20.4164 13.5 21.0132V22.5132H15V21.0132C15 20.8143 15.079 20.6235 15.2197 20.4829C15.3603 20.3422 15.5511 20.2632 15.75 20.2632H20.25C20.4489 20.2632 20.6397 20.3422 20.7803 20.4829C20.921 20.6235 21 20.8143 21 21.0132V22.5132H22.5V21.0132C22.5 20.4164 22.2629 19.8442 21.841 19.4222C21.419 19.0002 20.8467 18.7632 20.25 18.7632ZM15 15.0132C15 15.6065 15.1759 16.1865 15.5056 16.6799C15.8352 17.1732 16.3038 17.5578 16.8519 17.7848C17.4001 18.0119 18.0033 18.0713 18.5853 17.9555C19.1672 17.8398 19.7018 17.5541 20.1213 17.1345C20.5409 16.7149 20.8266 16.1804 20.9424 15.5985C21.0581 15.0165 20.9987 14.4133 20.7716 13.8651C20.5446 13.317 20.1601 12.8484 19.6667 12.5188C19.1734 12.1891 18.5933 12.0132 18 12.0132C17.2044 12.0132 16.4413 12.3293 15.8787 12.8919C15.3161 13.4545 15 14.2175 15 15.0132ZM19.5 15.0132C19.5 15.3099 19.412 15.5999 19.2472 15.8465C19.0824 16.0932 18.8481 16.2855 18.574 16.399C18.2999 16.5125 17.9983 16.5422 17.7074 16.4844C17.4164 16.4265 17.1491 16.2836 16.9393 16.0738C16.7296 15.8641 16.5867 15.5968 16.5288 15.3058C16.4709 15.0148 16.5006 14.7132 16.6142 14.4392C16.7277 14.1651 16.92 13.9308 17.1666 13.766C17.4133 13.6012 17.7033 13.5132 18 13.5132C18.3978 13.5132 18.7794 13.6712 19.0607 13.9525C19.342 14.2338 19.5 14.6154 19.5 15.0132Z" fill="#F8F8F8"/>
</svg>
