<svg width="26" height="25" viewBox="0 0 26 25" fill="none" xmlns="http://www.w3.org/2000/svg">
<path d="M12.4729 25C8.58139 25 4.68217 25 0.790697 25C0.186046 25 0 24.8062 0 24.1938C0.0465116 19.0233 3.70542 14.5194 8.79844 13.3799C9.40309 13.2481 10.0232 13.1396 10.6356 13.1241C12.5814 13.0853 14.5271 12.9535 16.4496 13.4186C20.7209 14.4496 24.1163 18.0776 24.8294 22.4109C24.9225 23 24.969 23.6047 25 24.2016C25.031 24.752 24.7674 25 24.217 25C20.3023 25 16.3876 25 12.4729 25Z" fill="#151824"/>
<path d="M6.55812 5.938C6.56587 2.63567 9.22479 -0.00773493 12.5426 1.70061e-05C15.8062 0.00776894 18.4573 2.68219 18.4496 5.96125C18.4418 9.25582 15.7752 11.9147 12.4883 11.907C9.20928 11.8992 6.55037 9.22482 6.55812 5.938Z" fill="#151824"/>
</svg>
