<svg width="28" height="28" viewBox="0 0 28 28" fill="none" xmlns="http://www.w3.org/2000/svg">
<path fill-rule="evenodd" clip-rule="evenodd" d="M24.2745 8.89405L23.5484 7.63395C22.934 6.56771 21.5726 6.19988 20.5049 6.81167V6.81167C19.9966 7.11107 19.3902 7.19602 18.8192 7.04777C18.2483 6.89953 17.7598 6.53027 17.4614 6.02144C17.2694 5.69801 17.1663 5.32963 17.1624 4.95355V4.95355C17.1797 4.3506 16.9522 3.76631 16.5318 3.33379C16.1113 2.90126 15.5337 2.65734 14.9305 2.65759H13.4675C12.8765 2.65759 12.3099 2.89307 11.8931 3.31194C11.4762 3.73081 11.2435 4.29853 11.2463 4.88948V4.88948C11.2288 6.10958 10.2346 7.08945 9.01441 7.08933C8.63833 7.08542 8.26995 6.98227 7.94652 6.79032V6.79032C6.87882 6.17852 5.51738 6.54635 4.90304 7.61259L4.12349 8.89405C3.50989 9.95896 3.87271 11.3195 4.93508 11.9375V11.9375C5.62563 12.3362 6.05103 13.073 6.05103 13.8704C6.05103 14.6678 5.62563 15.4046 4.93508 15.8033V15.8033C3.87406 16.4171 3.51085 17.7744 4.12349 18.8361V18.8361L4.86033 20.1069C5.14817 20.6263 5.63112 21.0095 6.20231 21.1719C6.77349 21.3342 7.38583 21.2622 7.90381 20.9719V20.9719C8.41301 20.6747 9.0198 20.5933 9.58931 20.7457C10.1588 20.8981 10.6439 21.2717 10.9366 21.7835C11.1286 22.1069 11.2317 22.4753 11.2356 22.8513V22.8513C11.2356 24.084 12.2349 25.0832 13.4675 25.0832H14.9305C16.159 25.0832 17.1565 24.0905 17.1624 22.862V22.862C17.1595 22.2692 17.3938 21.6999 17.8129 21.2807C18.2321 20.8615 18.8015 20.6273 19.3943 20.6301C19.7695 20.6402 20.1363 20.7429 20.4622 20.9291V20.9291C21.5271 21.5427 22.8876 21.1799 23.5056 20.1176V20.1176L24.2745 18.8361C24.5721 18.3253 24.6538 17.7169 24.5015 17.1456C24.3491 16.5744 23.9754 16.0874 23.4629 15.7926V15.7926C22.9505 15.4978 22.5767 15.0108 22.4244 14.4396C22.272 13.8684 22.3537 13.26 22.6513 12.7491C22.8449 12.4112 23.125 12.1311 23.4629 11.9375V11.9375C24.5189 11.3199 24.8809 9.96725 24.2745 8.90473V8.90473V8.89405Z" stroke="white" stroke-width="1.5" stroke-linecap="round" stroke-linejoin="round"/>
<ellipse cx="14.2043" cy="13.8704" rx="3.07551" ry="3.07551" stroke="white" stroke-width="1.5" stroke-linecap="round" stroke-linejoin="round"/>
</svg>
