<svg width="33" height="33" viewBox="0 0 33 33" fill="none" xmlns="http://www.w3.org/2000/svg">
<rect x="1" y="1" width="31" height="31" rx="15.5" fill="#001F4D"/>
<path d="M17 10.3334C16.3407 10.3334 15.6963 10.5289 15.1481 10.8951C14.5999 11.2614 14.1727 11.782 13.9204 12.3911C13.6681 13.0002 13.6021 13.6704 13.7307 14.317C13.8593 14.9636 14.1768 15.5576 14.643 16.0237C15.1092 16.4899 15.7031 16.8074 16.3497 16.936C16.9963 17.0646 17.6665 16.9986 18.2756 16.7463C18.8847 16.494 19.4053 16.0668 19.7716 15.5186C20.1378 14.9704 20.3333 14.326 20.3333 13.6667C20.3333 12.7827 19.9821 11.9348 19.357 11.3097C18.7319 10.6846 17.8841 10.3334 17 10.3334V10.3334ZM17 15.6667C16.6044 15.6667 16.2178 15.5494 15.8889 15.3296C15.56 15.1099 15.3036 14.7975 15.1522 14.4321C15.0009 14.0666 14.9613 13.6645 15.0384 13.2765C15.1156 12.8886 15.3061 12.5322 15.5858 12.2525C15.8655 11.9728 16.2219 11.7823 16.6098 11.7051C16.9978 11.628 17.3999 11.6676 17.7654 11.8189C18.1308 11.9703 18.4432 12.2267 18.6629 12.5556C18.8827 12.8845 19 13.2711 19 13.6667C19 14.1971 18.7893 14.7058 18.4142 15.0809C18.0391 15.456 17.5304 15.6667 17 15.6667V15.6667ZM23 23V22.3334C23 21.0957 22.5083 19.9087 21.6332 19.0335C20.758 18.1584 19.571 17.6667 18.3333 17.6667H15.6667C14.429 17.6667 13.242 18.1584 12.3668 19.0335C11.4917 19.9087 11 21.0957 11 22.3334V23H12.3333V22.3334C12.3333 21.4493 12.6845 20.6015 13.3096 19.9764C13.9348 19.3512 14.7826 19 15.6667 19H18.3333C19.2174 19 20.0652 19.3512 20.6904 19.9764C21.3155 20.6015 21.6667 21.4493 21.6667 22.3334V23H23Z" fill="#3A57E8"/>
<rect x="1" y="1" width="31" height="31" rx="15.5" stroke="#3A57E8" stroke-width="2"/>
</svg>
