<svg width="24" height="25" viewBox="0 0 24 25" fill="none" xmlns="http://www.w3.org/2000/svg">
<path d="M0.00585607 15.639C0.117123 15.2759 0.181541 14.8894 0.339657 14.5498C0.936985 13.3083 1.94424 12.5997 3.31459 12.5235C4.29256 12.4708 5.28225 12.4884 6.26023 12.5587C6.65845 12.588 6.8517 12.5177 7.08009 12.1839C7.73013 11.241 8.66711 10.7374 9.82078 10.7198C11.3024 10.6964 12.7898 10.6847 14.2715 10.7315C15.4778 10.7667 16.409 11.364 17.0473 12.383C17.1761 12.588 17.2874 12.6465 17.5099 12.5762C17.6329 12.5352 17.7734 12.5235 17.9023 12.5235C18.9154 12.5294 19.9344 12.4708 20.9416 12.5587C22.5872 12.7051 23.9283 14.1691 23.9751 15.8206C24.0102 17.144 24.0044 18.4734 23.981 19.8027C23.9575 20.9857 23.085 21.8231 21.902 21.8817C21.8376 21.8817 21.7791 21.8817 21.7146 21.8817C15.2319 21.8817 8.75496 21.8817 2.27219 21.8817C1.51089 21.8817 0.88428 21.6299 0.415787 21.0208C0.181541 20.7163 0.07613 20.3591 0 19.996C0.00585616 18.5437 0.00585607 17.0913 0.00585607 15.639ZM7.81797 20.4586C10.6231 20.4586 13.3872 20.4586 16.163 20.4586C16.1689 20.4059 16.1747 20.3708 16.1747 20.3356C16.1747 18.2977 16.1923 16.2598 16.1689 14.2277C16.1571 12.9862 15.2553 12.1253 13.9904 12.1195C12.6669 12.1136 11.3375 12.1019 10.014 12.1253C9.68023 12.1312 9.323 12.1956 9.02434 12.3361C8.19862 12.7285 7.82383 13.4254 7.82383 14.3389C7.82383 16.2949 7.82383 18.2567 7.82383 20.2127C7.81797 20.2888 7.81797 20.3649 7.81797 20.4586ZM6.41249 20.4586C6.41249 20.3532 6.41249 20.2595 6.41249 20.1658C6.41249 18.2626 6.41249 16.3593 6.41249 14.4561C6.41249 13.9232 6.41249 13.9173 5.86201 13.9114C5.09486 13.9056 4.33356 13.9056 3.5664 13.9114C3.379 13.9114 3.19161 13.9349 3.01006 13.9817C2.00281 14.257 1.41133 15.0417 1.40548 16.1016C1.39962 17.2787 1.40548 18.4558 1.40548 19.6329C1.40548 20.2127 1.66315 20.4703 2.24876 20.4703C3.54883 20.4703 4.85475 20.4703 6.15482 20.4703C6.24266 20.4703 6.31879 20.4645 6.41249 20.4586ZM17.5919 20.4469C17.6329 20.4586 17.6446 20.4703 17.6622 20.4703C19.0794 20.4703 20.5024 20.4762 21.9196 20.4645C22.3061 20.4645 22.5813 20.16 22.5813 19.7617C22.5872 18.5144 22.5931 17.267 22.5813 16.0197C22.5696 14.8953 21.7205 13.9993 20.6898 13.9466C19.7704 13.8997 18.851 13.929 17.9316 13.929C17.8203 13.929 17.7032 13.97 17.5919 13.9876C17.5919 16.1485 17.5919 18.2919 17.5919 20.4469Z" fill="white"/>
<path d="M12.005 2.00001C14.3065 2.00587 16.1688 3.87398 16.1688 6.17545C16.1629 8.46521 14.2772 10.3509 11.9933 10.345C9.69772 10.3392 7.82375 8.4535 7.8296 6.16374C7.83546 3.86227 9.70943 1.99416 12.005 2.00001ZM11.9992 3.40549C10.4707 3.40549 9.22923 4.64114 9.23508 6.1696C9.23508 7.68049 10.4707 8.92199 11.9875 8.9337C13.5042 8.94542 14.7633 7.69806 14.7633 6.17545C14.7692 4.64114 13.5335 3.40549 11.9992 3.40549Z" fill="white"/>
<path d="M1.56935 8.98649C1.57521 7.26478 2.99826 5.85344 4.70825 5.87101C6.42996 5.88858 7.82373 7.2882 7.81787 8.9982C7.81202 10.7199 6.38312 12.1312 4.67312 12.1137C2.95726 12.102 1.5635 10.6906 1.56935 8.98649ZM4.72582 7.28235C3.79469 7.25307 3.02168 7.9968 2.98069 8.96306C2.94555 9.87662 3.70685 10.6731 4.66141 10.7082C5.57497 10.7433 6.36555 9.98203 6.40654 9.02162C6.44753 8.11392 5.67452 7.31163 4.72582 7.28235Z" fill="white"/>
<path d="M19.2962 5.87678C21.012 5.86507 22.4351 7.28226 22.4292 8.99811C22.4233 10.714 21.0296 12.1077 19.3137 12.1194C17.6037 12.1253 16.1748 10.7081 16.1807 8.99226C16.1807 7.28226 17.5803 5.88264 19.2962 5.87678ZM19.2727 7.28226C18.3182 7.31154 17.5452 8.11383 17.5862 9.02154C17.633 9.98195 18.4236 10.7432 19.3372 10.7023C20.2917 10.6613 21.0589 9.87068 21.0179 8.95712C20.9769 7.99671 20.2039 7.25298 19.2727 7.28226Z" fill="white"/>
</svg>
